<?xml version="1.0" encoding="utf-8"?>
<!-- Generator: Adobe Illustrator 23.1.1, SVG Export Plug-In . SVG Version: 6.00 Build 0)  -->
<svg version="1.1" id="Layer_1" xmlns="http://www.w3.org/2000/svg" xmlns:xlink="http://www.w3.org/1999/xlink" x="0px" y="0px"
	 viewBox="0 0 304.5 113.8" style="enable-background:new 0 0 304.5 113.8;" xml:space="preserve">
<style type="text/css">
	.st0{fill:#252828;stroke:#252828;stroke-width:4;stroke-miterlimit:10;}
	.st1{fill:#252828;stroke:#252828;stroke-width:3.029;stroke-miterlimit:10;}
	.st2{fill:#252828;}
	.st3{fill:#662C8F;}
	.st4{fill:#293991;}
	.st5{fill:#23A8E0;}
	.st6{fill:#006A37;}
	.st7{fill:#F5EB0E;}
	.st8{fill:#F8951D;}
	.st9{fill:#C12129;}
	.st10{clip-path:url(#SVGID_2_);fill:#121212;}
	.st11{clip-path:url(#SVGID_2_);fill:#84C20E;}
	.st12{clip-path:url(#SVGID_2_);fill:#D8D038;}
</style>
<path class="st0" d="M111.6,82.2c-4.5,3.7-10.9,5.6-19.1,5.6H60v-78h31.2c8,0,14.2,1.8,18.6,5.3c4.4,3.6,6.6,8.6,6.6,15.2
	c0,8.5-4.1,14.4-12.2,17.5c9.4,2.6,14.1,8.8,14.1,18.8C118.3,73.3,116.1,78.5,111.6,82.2z M69,17.3v27.1h20.9
	c11.8,0,17.7-4.6,17.7-13.7c0-9-5.9-13.5-17.7-13.5L69,17.3L69,17.3z M91.6,52.1H69v28.2h22.6c11.8,0,17.7-4.6,17.7-13.9
	C109.4,56.9,103.4,52.1,91.6,52.1z"/>
<path class="st1" d="M135.2,87.7h-6.6V46h6.6V87.7z"/>
<path class="st1" d="M169.2,51.3h-12v22.8c0,5.6,2.4,8.4,7.3,8.4c1.4,0,2.9-0.3,4.5-0.8v5.7c-1.8,0.6-3.7,1-5.8,1
	c-4,0-7.1-1.2-9.3-3.5s-3.3-5.6-3.3-9.8V51.3h-8.1V46h8.1V35.3l6.6-2.3v13h12V51.3z"/>
<path class="st1" d="M197.1,51.3h-12v22.8c0,5.6,2.4,8.4,7.3,8.4c1.4,0,2.9-0.3,4.5-0.8v5.7c-1.8,0.6-3.7,1-5.8,1
	c-4,0-7.1-1.2-9.3-3.5s-3.3-5.6-3.3-9.8V51.3h-8.1V46h8.1V35.3l6.6-2.3v13h12V51.3z"/>
<path class="st1" d="M234.3,46h6.6v41.7h-6.6v-7.6c-2.5,5.5-7.2,8.2-14.1,8.2c-5.6,0-10.1-2-13.4-5.9c-3.3-3.9-5-9.1-5-15.6
	s1.7-11.7,5.1-15.8c3.4-4,7.8-6.1,13.3-6.1c6.6,0,11.3,2.7,14.1,8.2L234.3,46L234.3,46z M221.6,50.6c-4.1,0-7.3,1.4-9.5,4.3
	c-2.3,2.9-3.4,6.8-3.4,11.9s1.1,9,3.4,11.7c2.3,2.7,5.4,4.1,9.5,4.1s7.2-1.4,9.5-4.2c2.2-2.8,3.3-6.7,3.3-11.8
	C234.3,56,230.1,50.6,221.6,50.6z"/>
<path class="st1" d="M285.7,82.4c-3.4,3.9-7.9,5.9-13.5,5.9c-6.7,0-11.4-2.8-14.1-8.4v25.7h-6.6V57.8c0-3.1-0.2-7.1-0.6-11.8h6.3
	l0.6,8.1c2.6-6,7.4-9.1,14.4-9.1c5.6,0,10.1,2,13.5,6.1c3.4,4,5.1,9.3,5.1,15.8C290.8,73.3,289.1,78.5,285.7,82.4z M280.4,54.9
	c-2.3-2.9-5.4-4.3-9.4-4.3c-4.1,0-7.3,1.4-9.5,4.1c-2.3,2.7-3.4,6.7-3.4,11.9c0,5.1,1.1,9,3.4,11.8s5.4,4.2,9.5,4.2s7.2-1.4,9.5-4.1
	c2.2-2.7,3.3-6.7,3.3-11.7C283.8,61.7,282.7,57.8,280.4,54.9z"/>
<circle class="st2" cx="131.9" cy="37" r="5.7"/>
<path class="st2" d="M61.8,43c0-0.4-0.1-0.8-0.5-1c-0.3-0.2-0.6-0.2-0.9-0.2c-3.8,0-7.6,0-11.4-0.2c-0.3,0-0.5,0-0.7-0.2
	C48,41.2,48,40.8,48,40.5c-0.1-2.4-0.3-4.7-0.4-7.1c0-0.7-0.1-1.4-0.5-2s-1.2-0.9-1.8-0.4c-0.5-1.6-0.2-3.4,0.9-4.7
	c1.6,0.2,3.1,1,4.6,1.5s3.4,0.7,4.6-0.3c1.1-0.8,1.5-2.3,1.6-3.6c0.1-1.2,0-2.5-0.6-3.5c-0.5-1.1-1.6-2-2.8-2.1
	c-0.8-0.1-1.6,0.1-2.4,0.3c-1.6,0.5-3.2,1.1-4.8,1.8c-0.8-1.6-2.6-2.7-4.4-2.8c-1.8-0.1-3.6,0.9-4.6,2.5c-2.7-0.5-5.4-2.7-8-1.7
	c-1.9,0.7-3,2.9-2.9,5c0,1.9,0.9,4,2.7,4.7c2.4,0.9,4.9-1,7.4-1.9c0.2-0.1,0.5-0.1,0.7-0.1c0.3,0.1,0.5,0.4,0.6,0.7
	c0.6,1.3,0.8,2.8,0.5,4.1c-0.6-0.3-1.4,0.1-1.7,0.7s-0.3,1.3-0.3,2c-0.1,2.7-0.4,5.4-1.1,8.1c-4.4,0.1-8.7,0.1-13.1,0.2
	c-1.9,0-4.1,0.1-5.5,1.4c-1.7,1.5-1.8,4.1-1.8,6.4c0,5,0,10.1,0,15.1c0,3.7,4.3,3.1,6.9,2.8c0.9-0.1,1.9-0.3,2.5-1
	C25,66,25,65,24.9,64.1c-0.1-2.7-0.2-5.3-0.3-8c0-0.3,0-0.7,0.1-1c0.3-0.6,1-0.7,1.7-0.7c2.7-0.2,5.5-0.2,8.2-0.1
	c8.6,0.2,18.2-0.2,25.7,0.5c0.3,0,0.7,0,1-0.2c0.6-0.3,0.6-1.1,0.6-1.8c-0.1-3.1-0.1-6.3-0.2-9.4C61.8,43.3,61.8,43.1,61.8,43z"/>
<path class="st3" d="M16.9,75.5c0,0,1.7-4.3,2.9-4.3c1.1-0.1,1.8,1.2,1.9,1.4C21.8,72.6,16.9,75.5,16.9,75.5z"/>
<polygon class="st4" points="15.5,78.4 22.5,74.1 21.7,72.5 16.9,75.5 "/>
<polygon class="st5" points="22.5,74.1 23.5,75.9 13.9,81.8 14.5,80.3 15.5,78.4 "/>
<path class="st6" d="M23.5,75.9l1.1,2.2l-11.1,6.4c0,0,0.2-1.9,0.5-2.8"/>
<path class="st7" d="M24.6,78.1l1.2,2.3l-11.9,6.4c0,0-0.5-1.4-0.4-2.3L24.6,78.1z"/>
<path class="st8" d="M25.8,80.4c0,0,0.8,2,0.8,2.6l-11.1,6.3c0,0-0.9-0.6-1.7-2.4L25.8,80.4z"/>
<path class="st9" d="M26.6,83c0,0,0.6,4.5-3.4,6.3c0,0-3.6,2.2-7.6,0L26.6,83z"/>
<g>
	<g>
		<defs>
			<rect id="SVGID_1_" x="423.4" y="-137.2" width="612" height="792"/>
		</defs>
		<clipPath id="SVGID_2_">
			<use xlink:href="#SVGID_1_"  style="overflow:visible;"/>
		</clipPath>
		<g style="clip-path:url(#SVGID_2_);">
			<text transform="matrix(1 0 0 1 678.6852 -43.6304)"><tspan x="0" y="0" style="font-family:'Helvetica'; font-size:30px;">BIT</tspan><tspan x="46.7" y="0" style="font-family:'Helvetica'; font-size:30px; letter-spacing:-3;">T</tspan><tspan x="61.4" y="0" style="font-family:'Helvetica'; font-size:30px;">AP</tspan></text>
		</g>
		<g style="clip-path:url(#SVGID_2_);">
			<text transform="matrix(1 0 0 1 651.6696 -16.1304)"><tspan x="0" y="0" style="font-family:'Helvetica'; font-size:20px;">Logo b</tspan><tspan x="61.2" y="0" style="font-family:'Helvetica'; font-size:20px;">r</tspan><tspan x="67.6" y="0" style="font-family:'Helvetica'; font-size:20px;">and guide</tspan></text>
		</g>
		<g style="clip-path:url(#SVGID_2_);">
			<text transform="matrix(1 0 0 1 495.4 17.1137)" style="font-family:'Helvetica-Bold'; font-size:18px;">Name</text>
		</g>
		<g style="clip-path:url(#SVGID_2_);">
			<text transform="matrix(1 0 0 1 515.4 38.5336)"><tspan x="0" y="0" style="font-family:'Helvetica'; font-size:18px;">F</tspan><tspan x="10.5" y="0" style="font-family:'Helvetica'; font-size:18px;">ont</tspan><tspan x="35.5" y="0" style="font-family:'Helvetica'; font-size:18px;">:</tspan><tspan x="39.6" y="0" style="font-family:'Helvetica'; font-size:18px;"> Lato</tspan></text>
		</g>
		<g style="clip-path:url(#SVGID_2_);">
			<text transform="matrix(1 0 0 1 515.4 59.3417)"><tspan x="0" y="0" style="font-family:'Helvetica'; font-size:18px;">Colo</tspan><tspan x="37" y="0" style="font-family:'Helvetica'; font-size:18px;">r</tspan><tspan x="43.5" y="0" style="font-family:'Helvetica'; font-size:18px;">:</tspan><tspan x="47.7" y="0" style="font-family:'Helvetica'; font-size:18px;"> #121212</tspan></text>
		</g>
		<rect x="648.1" y="49.4" class="st10" width="10" height="10"/>
		<g style="clip-path:url(#SVGID_2_);">
			<text transform="matrix(1 0 0 1 495.4 80.1498)"><tspan x="0" y="0" style="font-family:'Helvetica-Bold'; font-size:18px; letter-spacing:-1;">T</tspan><tspan x="9.6" y="0" style="font-family:'Helvetica-Bold'; font-size:18px;">a</tspan><tspan x="19.4" y="0" style="font-family:'Helvetica-Bold'; font-size:18px;">g Line</tspan></text>
		</g>
		<g style="clip-path:url(#SVGID_2_);">
			<text transform="matrix(1 0 0 1 515.4 101.5698)"><tspan x="0" y="0" style="font-family:'Helvetica'; font-size:18px;">F</tspan><tspan x="10.5" y="0" style="font-family:'Helvetica'; font-size:18px;">ont</tspan><tspan x="35.5" y="0" style="font-family:'Helvetica'; font-size:18px;">:</tspan><tspan x="39.6" y="0" style="font-family:'Helvetica'; font-size:18px;"> Lato</tspan></text>
		</g>
		<g style="clip-path:url(#SVGID_2_);">
			<text transform="matrix(1 0 0 1 515.4 122.3779)"><tspan x="0" y="0" style="font-family:'Helvetica'; font-size:18px;">Colo</tspan><tspan x="37" y="0" style="font-family:'Helvetica'; font-size:18px;">r</tspan><tspan x="43.5" y="0" style="font-family:'Helvetica'; font-size:18px;">:</tspan><tspan x="47.7" y="0" style="font-family:'Helvetica'; font-size:18px;"> #121212</tspan></text>
		</g>
		<rect x="648.1" y="112.5" class="st10" width="10" height="10"/>
		<g style="clip-path:url(#SVGID_2_);">
			<text transform="matrix(1 0 0 1 495.4 143.1855)" style="font-family:'Helvetica-Bold'; font-size:18px;">Icon</text>
		</g>
		<g style="clip-path:url(#SVGID_2_);">
			<text transform="matrix(1 0 0 1 515.4 164.6059)"><tspan x="0" y="0" style="font-family:'Helvetica'; font-size:18px;">Colo</tspan><tspan x="37" y="0" style="font-family:'Helvetica'; font-size:18px;">r</tspan><tspan x="43.5" y="0" style="font-family:'Helvetica'; font-size:18px;">:</tspan><tspan x="47.7" y="0" style="font-family:'Helvetica'; font-size:18px;"> #84c20e</tspan></text>
		</g>
		<rect x="647.1" y="154.7" class="st11" width="10" height="10"/>
		<g style="clip-path:url(#SVGID_2_);">
			<text transform="matrix(1 0 0 1 515.4 185.4135)"><tspan x="0" y="0" style="font-family:'Helvetica'; font-size:18px;">Colo</tspan><tspan x="37" y="0" style="font-family:'Helvetica'; font-size:18px;">r</tspan><tspan x="43.5" y="0" style="font-family:'Helvetica'; font-size:18px;">:</tspan><tspan x="47.7" y="0" style="font-family:'Helvetica'; font-size:18px;"> #d8d038</tspan></text>
		</g>
		<rect x="648.1" y="175.5" class="st12" width="10" height="10"/>
		<g style="clip-path:url(#SVGID_2_);">
			<text transform="matrix(1 0 0 1 515.4 206.2216)"><tspan x="0" y="0" style="font-family:'Helvetica'; font-size:18px;">Colo</tspan><tspan x="37" y="0" style="font-family:'Helvetica'; font-size:18px;">r</tspan><tspan x="43.5" y="0" style="font-family:'Helvetica'; font-size:18px;">:</tspan><tspan x="47.7" y="0" style="font-family:'Helvetica'; font-size:18px;"> #121212</tspan></text>
		</g>
		<rect x="648.1" y="196.3" class="st10" width="10" height="10"/>
	</g>
</g>
</svg>
