<?xml version="1.0" encoding="utf-8"?>
<!-- Generator: Adobe Illustrator 23.1.1, SVG Export Plug-In . SVG Version: 6.00 Build 0)  -->
<svg version="1.1" id="Layer_1" xmlns="http://www.w3.org/2000/svg" xmlns:xlink="http://www.w3.org/1999/xlink" x="0px" y="0px"
	 viewBox="0 0 299.3 113.8" style="enable-background:new 0 0 299.3 113.8;" xml:space="preserve">
<style type="text/css">
	.st0{fill:#252828;stroke:#252828;stroke-width:3.029;stroke-miterlimit:10;}
	.st1{fill:#252828;}
	.st2{fill:#662C8F;}
	.st3{fill:#293991;}
	.st4{fill:#23A8E0;}
	.st5{fill:#006A37;}
	.st6{fill:#F5EB0E;}
	.st7{fill:#F8951D;}
	.st8{fill:#C12129;}
	.st9{fill:none;}
	.st10{fill:#0B0C0C;}
</style>
<g id="bg">
</g>
<path class="st0" d="M265-413.5h-6.6v-41.7h6.6V-413.5z"/>
<path class="st0" d="M299-449.9h-12v22.8c0,5.6,2.4,8.4,7.3,8.4c1.4,0,2.9-0.3,4.5-0.8v5.7c-1.8,0.6-3.7,1-5.8,1
	c-4,0-7.1-1.2-9.3-3.5c-2.2-2.3-3.3-5.6-3.3-9.8v-23.8h-8.1v-5.3h8.1v-10.7l6.6-2.3v13h12L299-449.9L299-449.9z"/>
<path class="st0" d="M326.9-449.9h-12v22.8c0,5.6,2.4,8.4,7.3,8.4c1.4,0,2.9-0.3,4.5-0.8v5.7c-1.8,0.6-3.7,1-5.8,1
	c-4,0-7.1-1.2-9.3-3.5c-2.2-2.3-3.3-5.6-3.3-9.8v-23.8h-8.1v-5.3h8.1v-10.7l6.6-2.3v13h12L326.9-449.9L326.9-449.9z"/>
<path class="st0" d="M364.1-455.2h6.6v41.7h-6.6v-7.6c-2.5,5.5-7.2,8.2-14.1,8.2c-5.6,0-10.1-2-13.4-5.9s-5-9.1-5-15.6
	s1.7-11.7,5.1-15.8c3.4-4,7.8-6.1,13.3-6.1c6.6,0,11.3,2.7,14.1,8.2V-455.2L364.1-455.2z M351.4-450.6c-4.1,0-7.3,1.4-9.5,4.3
	c-2.3,2.9-3.4,6.8-3.4,11.9s1.1,9,3.4,11.7s5.4,4.1,9.5,4.1s7.2-1.4,9.5-4.2c2.2-2.8,3.3-6.7,3.3-11.8
	C364.1-445.2,359.9-450.6,351.4-450.6z"/>
<path class="st0" d="M415.5-418.8c-3.4,3.9-7.9,5.9-13.5,5.9c-6.7,0-11.4-2.8-14.1-8.4v25.7h-6.6v-47.8c0-3.1-0.2-7.1-0.6-11.8h6.3
	l0.6,8.1c2.6-6,7.4-9.1,14.4-9.1c5.6,0,10.1,2,13.5,6.1c3.4,4,5.1,9.3,5.1,15.8C420.5-427.9,418.9-422.7,415.5-418.8z M410.1-446.3
	c-2.3-2.9-5.4-4.3-9.4-4.3c-4.1,0-7.3,1.4-9.5,4.1c-2.3,2.7-3.4,6.7-3.4,11.9c0,5.1,1.1,9,3.4,11.8s5.4,4.2,9.5,4.2s7.2-1.4,9.5-4.1
	c2.2-2.7,3.3-6.7,3.3-11.7C413.5-439.5,412.5-443.4,410.1-446.3z"/>
<circle class="st1" cx="261.7" cy="-464.2" r="5.7"/>
<path class="st1" d="M225.8-560.3c0-0.4-0.1-0.8-0.5-1c-0.3-0.2-0.6-0.2-0.9-0.2c-3.8,0-7.6,0-11.4-0.2c-0.3,0-0.5,0-0.7-0.2
	c-0.3-0.2-0.3-0.6-0.3-0.9c-0.1-2.4-0.3-4.7-0.4-7.1c0-0.7-0.1-1.4-0.5-2s-1.2-0.9-1.8-0.4c-0.5-1.6-0.2-3.4,0.9-4.7
	c1.6,0.2,3.1,1,4.6,1.5s3.4,0.7,4.6-0.3c1.1-0.8,1.5-2.3,1.6-3.6c0.1-1.2,0-2.5-0.6-3.5c-0.5-1.1-1.6-2-2.8-2.1
	c-0.8-0.1-1.6,0.1-2.4,0.3c-1.6,0.5-3.2,1.1-4.8,1.8c-0.8-1.6-2.6-2.7-4.4-2.8c-1.8-0.1-3.6,0.9-4.6,2.5c-2.7-0.5-5.4-2.7-8-1.7
	c-1.9,0.7-3,2.9-2.9,5c0,1.9,0.9,4,2.7,4.7c2.4,0.9,4.9-1,7.4-1.9c0.2-0.1,0.5-0.1,0.7-0.1c0.3,0.1,0.5,0.4,0.6,0.7
	c0.6,1.3,0.8,2.8,0.5,4.1c-0.6-0.3-1.4,0.1-1.7,0.7c-0.3,0.6-0.3,1.3-0.3,2c-0.1,2.7-0.4,5.4-1.1,8.1c-4.4,0.1-8.7,0.1-13.1,0.2
	c-1.9,0-4.1,0.1-5.5,1.4c-1.7,1.5-1.8,4.1-1.8,6.4c0,5,0,10.1,0,15.1c0,3.7,4.3,3.1,6.9,2.8c0.9-0.1,1.9-0.3,2.5-1
	c0.7-0.6,0.7-1.6,0.6-2.5c-0.1-2.7-0.2-5.3-0.3-8c0-0.3,0-0.7,0.1-1c0.3-0.6,1-0.7,1.7-0.7c2.7-0.2,5.5-0.2,8.2-0.1
	c8.6,0.2,18.2-0.2,25.7,0.5c0.3,0,0.7,0,1-0.2c0.6-0.3,0.6-1.1,0.6-1.8c-0.1-3.1-0.1-6.3-0.2-9.4C225.8-560,225.8-560.2,225.8-560.3
	z"/>
<path class="st2" d="M180.9-527.8c0,0,1.7-4.3,2.9-4.3c1.1-0.1,1.8,1.2,1.9,1.4C185.8-530.7,180.9-527.8,180.9-527.8z"/>
<polygon class="st3" points="179.5,-524.9 186.5,-529.2 185.7,-530.8 180.9,-527.8 "/>
<polygon class="st4" points="186.5,-529.2 187.5,-527.4 177.9,-521.5 178.5,-523 179.5,-524.9 "/>
<path class="st5" d="M187.5-527.4l1.1,2.2l-11.1,6.4c0,0,0.2-1.9,0.5-2.8"/>
<path class="st6" d="M188.6-525.2l1.2,2.3l-11.9,6.4c0,0-0.5-1.4-0.4-2.3L188.6-525.2z"/>
<path class="st7" d="M189.8-522.9c0,0,0.8,2,0.8,2.6l-11.1,6.3c0,0-0.9-0.6-1.7-2.4L189.8-522.9z"/>
<path class="st8" d="M190.6-520.3c0,0,0.6,4.5-3.4,6.3c0,0-3.6,2.2-7.6,0L190.6-520.3z"/>
<rect x="288.9" y="-585.7" class="st9" width="294.9" height="112.5"/>
<path class="st1" d="M308.9-568.6c0,1-0.2,2-0.6,2.9s-1,1.7-1.7,2.4s-1.6,1.2-2.5,1.6c-1,0.4-2,0.6-3.1,0.6s-2.1-0.2-3-0.6
	c-0.9-0.4-1.7-1-2.5-1.6c-0.7-0.7-1.3-1.5-1.7-2.4c-0.4-0.9-0.6-1.9-0.6-2.9c0-1.1,0.2-2.1,0.6-3s1-1.7,1.7-2.4s1.5-1.2,2.5-1.6
	c0.9-0.4,1.9-0.6,3-0.6s2.1,0.2,3.1,0.6c1,0.4,1.8,0.9,2.5,1.6c0.7,0.7,1.3,1.5,1.7,2.4C308.6-570.7,308.9-569.7,308.9-568.6z
	 M307.3-556.7v43.6h-13v-43.6H307.3z"/>
<path class="st1" d="M333.1-512.5c-2.1,0-3.9-0.3-5.5-0.9c-1.6-0.6-2.9-1.5-4-2.6s-1.9-2.4-2.5-4s-0.8-3.3-0.8-5.2v-22.5h-3.7
	c-0.7,0-1.2-0.2-1.7-0.7c-0.5-0.4-0.7-1.1-0.7-1.9v-5.1l6.9-1.3l2.6-10.6c0.3-1.3,1.3-2,2.9-2h6.8v12.7H344v8.9h-10.6v21.6
	c0,1,0.2,1.8,0.7,2.5s1.2,1,2.1,1c0.5,0,0.9,0,1.2-0.1s0.6-0.2,0.8-0.3c0.2-0.1,0.5-0.2,0.7-0.3s0.5-0.1,0.7-0.1
	c0.4,0,0.7,0.1,0.9,0.3c0.2,0.2,0.5,0.5,0.7,0.9l3.9,6.2c-1.7,1.3-3.6,2.2-5.7,2.8C337.5-512.8,335.4-512.5,333.1-512.5z"/>
<path class="st1" d="M366.7-512.5c-2.1,0-3.9-0.3-5.5-0.9c-1.6-0.6-2.9-1.5-4-2.6s-1.9-2.4-2.5-4s-0.8-3.3-0.8-5.2v-22.5h-3.7
	c-0.7,0-1.2-0.2-1.7-0.7c-0.5-0.4-0.7-1.1-0.7-1.9v-5.1l6.9-1.3l2.6-10.6c0.3-1.3,1.3-2,2.9-2h6.8v12.7h10.6v8.9H367v21.6
	c0,1,0.2,1.8,0.7,2.5s1.2,1,2.1,1c0.5,0,0.9,0,1.2-0.1s0.6-0.2,0.8-0.3c0.2-0.1,0.5-0.2,0.7-0.3s0.5-0.1,0.7-0.1
	c0.4,0,0.7,0.1,0.9,0.3c0.2,0.2,0.5,0.5,0.7,0.9l3.9,6.2c-1.7,1.3-3.6,2.2-5.7,2.8C371.1-512.8,369-512.5,366.7-512.5z"/>
<path class="st1" d="M415.1-513.2c-1.2,0-2.2-0.2-2.8-0.5s-1.2-1-1.6-2.1l-0.9-2.4c-1.1,0.9-2.1,1.7-3.2,2.4c-1,0.7-2.1,1.3-3.1,1.8
	c-1.1,0.5-2.2,0.9-3.4,1.1c-1.2,0.2-2.6,0.4-4.1,0.4c-2,0-3.8-0.3-5.4-0.8s-3-1.3-4.1-2.3s-2-2.3-2.6-3.8s-0.9-3.2-0.9-5.2
	c0-1.5,0.4-3.1,1.2-4.8c0.8-1.6,2.1-3.1,4.1-4.4c1.9-1.3,4.5-2.5,7.8-3.3c3.3-0.9,7.4-1.3,12.4-1.3v-1.9c0-2.6-0.5-4.4-1.6-5.6
	s-2.5-1.7-4.5-1.7c-1.5,0-2.8,0.2-3.8,0.5s-1.9,0.7-2.6,1.1c-0.8,0.4-1.5,0.8-2.2,1.1s-1.6,0.5-2.6,0.5c-0.9,0-1.7-0.2-2.3-0.7
	c-0.6-0.4-1.1-1-1.5-1.6l-2.4-4.1c2.6-2.3,5.6-4.1,8.8-5.2c3.2-1.1,6.6-1.7,10.3-1.7c2.6,0,5,0.4,7.1,1.3c2.1,0.9,3.9,2,5.4,3.6
	c1.5,1.5,2.6,3.3,3.4,5.4c0.8,2.1,1.2,4.4,1.2,6.9v27.2L415.1-513.2L415.1-513.2z M400.2-521.1c1.7,0,3.2-0.3,4.4-0.9
	s2.5-1.5,3.8-2.9v-6c-2.6,0-4.7,0.2-6.4,0.5c-1.7,0.3-3,0.8-4,1.3s-1.7,1.1-2,1.7s-0.6,1.4-0.6,2.1c0,1.5,0.4,2.5,1.2,3.2
	S398.6-521.1,400.2-521.1z"/>
<path class="st1" d="M430.3-499.3v-57.4h8.1c0.8,0,1.5,0.2,2,0.5c0.5,0.4,0.9,0.9,1.2,1.6l1,3.2c0.8-0.9,1.7-1.8,2.7-2.5
	s2-1.4,3.1-2c1.1-0.5,2.3-1,3.6-1.3c1.3-0.3,2.7-0.5,4.2-0.5c2.3,0,4.4,0.5,6.3,1.5s3.6,2.5,5,4.4s2.5,4.2,3.3,7s1.2,5.9,1.2,9.4
	c0,3.3-0.5,6.3-1.4,9.1s-2.2,5.2-3.8,7.2s-3.6,3.6-5.9,4.8c-2.3,1.1-4.8,1.7-7.6,1.7c-2.3,0-4.2-0.3-5.7-1s-2.9-1.5-4.2-2.6v16.7
	h-13.1V-499.3z M451.6-547.6c-1,0-1.8,0.1-2.6,0.3c-0.8,0.2-1.5,0.4-2.1,0.8s-1.3,0.8-1.8,1.3c-0.6,0.5-1.1,1.1-1.7,1.8v18.5
	c1,1.1,2,1.9,3.2,2.3c1.1,0.4,2.4,0.7,3.6,0.7s2.3-0.2,3.3-0.7s1.9-1.2,2.6-2.3c0.7-1,1.3-2.4,1.7-4.1s0.6-3.7,0.6-6.1
	c0-2.3-0.2-4.2-0.5-5.8s-0.8-2.8-1.4-3.8s-1.3-1.7-2.2-2.1C453.5-547.4,452.6-547.6,451.6-547.6z"/>
<rect x="52.4" y="13.3" class="st9" width="294.9" height="112.5"/>
<path class="st10" d="M54.2,81.6L61.3,24H81c3.3,0,6.2,0.3,8.6,0.9s4.3,1.5,5.8,2.7s2.6,2.6,3.3,4.2c0.7,1.6,1,3.5,1,5.5
	c0,1.6-0.2,3.1-0.6,4.6s-1.1,2.8-1.9,4c-0.9,1.2-2,2.4-3.4,3.4s-3.1,1.9-5.1,2.5c3.1,0.8,5.4,2.2,6.9,3.9c1.5,1.8,2.2,4,2.2,6.7
	c0,2.7-0.5,5.1-1.5,7.4s-2.5,4.3-4.4,6s-4.3,3.1-7,4c-2.8,1-5.9,1.5-9.3,1.5H54.2V81.6z M70,57l-1.8,14.9h8.5c1.6,0,2.9-0.2,4-0.7
	s2-1.1,2.6-1.9c0.7-0.8,1.2-1.8,1.5-2.9s0.5-2.3,0.5-3.6c0-0.9-0.1-1.7-0.3-2.4c-0.2-0.7-0.6-1.3-1.1-1.8s-1.3-0.9-2.1-1.1
	c-0.9-0.3-2-0.4-3.3-0.4H70V57z M71.1,48.5h6.2c1.4,0,2.8-0.1,3.9-0.4s2.2-0.8,3-1.5s1.5-1.6,1.9-2.8s0.7-2.6,0.7-4.3
	c0-2.1-0.6-3.6-1.7-4.5s-2.9-1.3-5.2-1.3h-7L71.1,48.5z"/>
<path class="st10" d="M119.3,40.6l-4.9,41h-12.1l4.9-41H119.3z"/>
<path class="st10" d="M126.8,72.8c0-0.2,0-0.4,0-0.7c0-0.3,0-0.6,0.1-1.1c0-0.5,0.1-1.1,0.2-1.9s0.2-1.9,0.4-3.2l2.1-16.7h-3.3
	c-0.5,0-0.9-0.2-1.3-0.5c-0.3-0.3-0.5-0.8-0.5-1.5c0,0,0-0.3,0.1-0.7s0.1-0.9,0.2-1.4s0.1-0.9,0.2-1.4c0.1-0.4,0.1-0.7,0.1-0.7
	l0.1-1.1l6.2-1.3l3.4-10c0.4-1.3,1.3-1.9,2.7-1.9h6.6l-1.5,12h9.2l-1,8.4h-9.2l-2,16.1c-0.1,1.1-0.2,1.9-0.3,2.5s-0.1,1.1-0.2,1.4
	s-0.1,0.6-0.1,0.7s0,0.2,0,0.2c0,0.8,0.2,1.4,0.5,1.9c0.4,0.5,0.9,0.8,1.7,0.8c0.4,0,0.8,0,1-0.1c0.3-0.1,0.5-0.2,0.7-0.3
	c0.2-0.1,0.4-0.2,0.6-0.3c0.2-0.1,0.4-0.1,0.6-0.1c0.4,0,0.6,0.1,0.8,0.3c0.2,0.2,0.4,0.4,0.5,0.8l2.7,5.8c-1.6,1.2-3.4,2.1-5.3,2.7
	s-3.8,0.9-5.6,0.9c-1.6,0-3-0.2-4.3-0.7c-1.3-0.4-2.4-1.1-3.3-1.9c-0.9-0.8-1.6-1.8-2.1-3C127.1,75.6,126.9,74.2,126.8,72.8z"/>
<path class="st10" d="M155.6,72.8c0-0.2,0-0.4,0-0.7c0-0.3,0-0.6,0.1-1.1c0-0.5,0.1-1.1,0.2-1.9c0.1-0.8,0.2-1.9,0.4-3.2l2.1-16.7
	h-3.3c-0.5,0-0.9-0.2-1.3-0.5c-0.3-0.3-0.5-0.8-0.5-1.5c0,0,0-0.3,0.1-0.7s0.1-0.9,0.2-1.4c0.1-0.5,0.1-0.9,0.2-1.4
	c0.1-0.4,0.1-0.7,0.1-0.7l0.1-1.1l6.2-1.3l3.4-10c0.4-1.3,1.3-1.9,2.7-1.9h6.6l-1.5,12h9.2l-1,8.4h-9.2l-2,16.1
	c-0.1,1.1-0.2,1.9-0.3,2.5s-0.1,1.1-0.2,1.4c0,0.3-0.1,0.6-0.1,0.7s0,0.2,0,0.2c0,0.8,0.2,1.4,0.5,1.9c0.4,0.5,0.9,0.8,1.7,0.8
	c0.4,0,0.8,0,1-0.1c0.3-0.1,0.5-0.2,0.7-0.3c0.2-0.1,0.4-0.2,0.6-0.3c0.2-0.1,0.4-0.1,0.6-0.1c0.4,0,0.6,0.1,0.8,0.3
	c0.2,0.2,0.4,0.4,0.5,0.8l2.7,5.8c-1.6,1.2-3.4,2.1-5.3,2.7c-1.9,0.6-3.8,0.9-5.6,0.9c-1.6,0-3-0.2-4.3-0.7
	c-1.3-0.4-2.4-1.1-3.3-1.9c-0.9-0.8-1.6-1.8-2.1-3C156,75.6,155.7,74.2,155.6,72.8z"/>
<path class="st10" d="M214.6,81.6H208c-0.8,0-1.4-0.1-1.9-0.3c-0.5-0.2-0.9-0.5-1.2-0.8s-0.5-0.8-0.6-1.2c-0.1-0.5-0.2-1-0.2-1.5
	v-2.9c-1.7,2.3-3.6,4.1-5.6,5.5s-4.3,2-6.8,2c-1.5,0-2.9-0.3-4.3-0.9s-2.6-1.5-3.6-2.7c-1.1-1.2-1.9-2.7-2.5-4.6s-0.9-4-0.9-6.6
	c0-3.7,0.7-7.2,2-10.6c1.4-3.3,3.3-6.2,5.7-8.7s5.3-4.5,8.7-6c3.3-1.5,7-2.2,11-2.2c1.9,0,3.9,0.1,5.9,0.4c2,0.3,4,0.7,5.9,1.4
	L214.6,81.6z M196.6,72.6c0.9,0,1.8-0.3,2.6-1s1.6-1.6,2.4-2.7c0.8-1.2,1.4-2.5,2.1-4.1c0.6-1.6,1.2-3.2,1.6-5l1.4-11.3H206
	c-2,0-3.8,0.4-5.5,1.3c-1.6,0.9-3.1,2.1-4.2,3.7c-1.2,1.5-2.1,3.3-2.7,5.4c-0.6,2-1,4.2-1,6.5c0,1.3,0.1,2.4,0.3,3.4
	s0.5,1.7,0.8,2.2s0.8,1,1.3,1.2C195.4,72.4,196,72.6,196.6,72.6z"/>
<path class="st10" d="M220.7,94.6l6.6-54h6.3c1.3,0,2.3,0.3,3,0.9c0.7,0.6,1.1,1.6,1.1,2.9v3.7c1.9-2.5,4-4.5,6.2-6s4.7-2.2,7.3-2.2
	c1.7,0,3.2,0.3,4.6,0.9c1.4,0.6,2.6,1.5,3.6,2.8s1.8,2.9,2.4,4.8c0.6,2,0.8,4.3,0.8,7c0,3.6-0.5,7-1.6,10.2s-2.6,6.1-4.4,8.5
	c-1.8,2.4-4,4.4-6.4,5.8s-4.9,2.2-7.6,2.2c-1.7,0-3.2-0.3-4.6-0.8c-1.3-0.6-2.5-1.3-3.6-2.2l-1.9,15.4L220.7,94.6L220.7,94.6z
	 M246.3,49.3c-0.8,0-1.7,0.3-2.6,1c-0.9,0.6-1.8,1.5-2.7,2.6s-1.7,2.4-2.4,3.9c-0.8,1.5-1.4,3.1-1.9,4.8l-1.2,9.9
	c0.8,0.6,1.6,1,2.5,1.3s1.8,0.4,2.7,0.4c1.4,0,2.7-0.5,3.9-1.4s2.2-2.2,3.1-3.7c0.9-1.5,1.5-3.3,2-5.3c0.5-2,0.7-4,0.7-6
	c0-2.6-0.4-4.5-1.1-5.7C248.6,49.9,247.6,49.3,246.3,49.3z"/>
<path class="st10" d="M62.6,49.3c0-0.3-0.1-0.6-0.4-0.7c-0.2-0.1-0.4-0.1-0.7-0.1c-2.8,0-5.6,0-8.4-0.1c-0.2,0-0.4,0-0.5-0.1
	c-0.2-0.1-0.2-0.4-0.2-0.7c-0.1-1.8-0.2-3.5-0.3-5.3c0-0.5-0.1-1-0.4-1.5c-0.3-0.4-0.9-0.7-1.3-0.3C50,39.3,50.3,38,51.1,37
	c1.2,0.1,1.8,0.1,2.9,0.5c1.1,0.4,2.4,0.3,3.2-0.6c0.5-0.5,0.7-1.2,0.8-1.9c0.1-1-0.2-2.2-0.9-2.9c-1.6-1.6-4-0.4-5.7,0.3
	c-0.6-1.2-1.9-2-3.2-2.1s-2.6,0.7-3.4,1.8c-1.2-0.2-2.2-0.8-3.5-0.8c-1.1,0-2.2,0.5-2.7,1.5c-0.2,0.5-0.3,1-0.3,1.5
	c0,0.8,0.1,1.6,0.6,2.2c0.3,0.3,0.8,0.5,1.2,0.7c1.5,0.4,2.6-0.1,3.9-0.6c0.1-0.1,0.4-0.1,0.5-0.1c0.2,0.1,0.4,0.3,0.4,0.5
	c0.4,1,0.6,2.1,0.4,3c-0.4-0.2-1,0.1-1.2,0.5s-0.2,1-0.2,1.5c-0.1,2-0.3,4-0.8,6c-3.2,0.1-6.4,0.1-9.6,0.1c-1.4,0-3,0.1-4,1
	c-1.2,1.1-1.3,3-1.3,4.7c0,3.7,0,7.5,0,11.2c0,2.7,3.2,2.3,5.1,2.1c0.7-0.1,1.4-0.2,1.8-0.7c0.5-0.4,0.5-1.2,0.4-1.8
	c-0.1-2-0.1-3.9-0.2-5.9c0-0.2,0-0.5,0.1-0.7c0.2-0.4,0.7-0.5,1.2-0.5c2-0.1,4-0.1,6-0.1c6.3,0.1,13.4-0.1,18.9,0.4
	c0.2,0,0.5,0,0.7-0.1c0.4-0.2,0.4-0.8,0.4-1.3c-0.1-2.3-0.1-4.7-0.1-7C62.6,49.6,62.6,49.4,62.6,49.3z"/>
<path class="st2" d="M635.1-286.4c0,0,5.4-13.9,9.3-13.9s6.2,3.9,6.2,4.6C651.4-295.7,635.1-286.4,635.1-286.4z"/>
<polygon class="st3" points="630.5,-277.2 653.7,-291.1 650.6,-295.7 635.1,-286.4 "/>
<polygon class="st4" points="653.7,-291.1 656.8,-284.9 625.1,-265.6 627.4,-270.2 630.5,-277.2 "/>
<path class="st5" d="M656.8-284.9l3.9,7L624.4-257c0,0,0.8-6.2,1.5-9.3"/>
<path class="st6" d="M660.6-277.9l3.9,7.7l-38.6,20.9c0,0-1.5-4.6-1.5-7.7L660.6-277.9z"/>
<path class="st7" d="M664.5-270.2c0,0,2.3,6.2,2.3,8.5l-36.3,20.9c0,0-3.1-2.3-5.4-7.7L664.5-270.2z"/>
<path class="st8" d="M666.8-261.7c0,0,2.3,14.7-10.8,20.9c0,0-11.6,7-24.7,0L666.8-261.7z"/>
<rect x="751.6" y="-441.9" class="st9" width="294.9" height="112.5"/>
<path class="st1" d="M767.4-373.7h-13l7-57.6h13L767.4-373.7z"/>
<path class="st1" d="M822.6-431.2l-1.3,10.2h-14.6l-5.8,47.4H788l5.8-47.4h-14.7l1.3-10.2H822.6z"/>
<path class="st1" d="M866.2-431.2l-1.3,10.2h-14.6l-5.8,47.4h-12.8l5.8-47.4h-14.7l1.3-10.2H866.2z"/>
<path class="st1" d="M906.7-373.7h-10c-1.1,0-2-0.3-2.7-0.8s-1.1-1.2-1.2-2l-1.8-10.3h-19.6l-4.3,10.3c-0.3,0.7-0.9,1.4-1.7,2
	s-1.8,0.8-2.8,0.8h-10.1l27.5-57.6h13.2L906.7-373.7z M875.2-395.6h14.5l-2.8-16.4c-0.2-1.4-0.5-2.8-0.8-4.2
	c-0.3-1.4-0.5-2.7-0.7-3.9c-0.2,0.6-0.5,1.3-0.8,2.2c-0.3,0.8-0.7,1.6-1,2.4s-0.6,1.5-0.9,2.1c-0.3,0.7-0.5,1.1-0.7,1.5L875.2-395.6
	z"/>
<path class="st1" d="M925.1-393.1l-2.4,19.4H910l7-57.6h19c3.4,0,6.4,0.4,8.8,1.2c2.4,0.8,4.4,2,6,3.4c1.6,1.5,2.7,3.2,3.5,5.2
	s1.1,4.1,1.1,6.4c0,3.1-0.5,6-1.4,8.7c-1,2.7-2.4,5-4.4,6.9s-4.5,3.5-7.5,4.6s-6.6,1.7-10.7,1.7L925.1-393.1L925.1-393.1z
	 M928.7-421.6l-2.3,18.9h6.2c1.8,0,3.4-0.3,4.6-0.8c1.3-0.5,2.3-1.3,3-2.3c0.8-1,1.3-2.2,1.7-3.5c0.3-1.4,0.5-2.9,0.5-4.5
	c0-1.1-0.2-2.2-0.5-3.1s-0.8-1.8-1.4-2.4c-0.6-0.7-1.4-1.2-2.4-1.6s-2.1-0.6-3.4-0.6h-6V-421.6z"/>
<rect x="697.8" y="-452.2" class="st9" width="56.6" height="112.5"/>
<path class="st1" d="M699.8-371.9l8.4-67.8h23.2c3.9,0,7.3,0.4,10.1,1.1s5.1,1.8,6.9,3.2c1.8,1.4,3.1,3,3.9,5s1.2,4.1,1.2,6.4
	c0,1.9-0.2,3.7-0.7,5.4c-0.5,1.7-1.2,3.3-2.3,4.8c-1,1.5-2.4,2.8-4,4s-3.6,2.2-6,3c3.7,1,6.4,2.5,8.1,4.6c1.8,2.1,2.6,4.7,2.6,7.9
	c0,3.1-0.6,6.1-1.8,8.8c-1.2,2.7-2.9,5.1-5.2,7.1s-5,3.6-8.3,4.8c-3.2,1.2-6.9,1.7-11,1.7L699.8-371.9L699.8-371.9z M718.5-400.8
	l-2.1,17.5h10c1.9,0,3.4-0.3,4.7-0.8s2.3-1.3,3.1-2.3s1.4-2.1,1.7-3.4c0.4-1.3,0.5-2.7,0.5-4.3c0-1-0.1-2-0.4-2.8
	c-0.3-0.8-0.7-1.5-1.3-2.1s-1.5-1-2.5-1.3s-2.3-0.5-3.8-0.5L718.5-400.8L718.5-400.8z M719.7-410.8h7.3c1.7,0,3.2-0.2,4.6-0.5
	c1.4-0.3,2.5-0.9,3.5-1.7c1-0.8,1.7-1.9,2.3-3.3c0.5-1.4,0.8-3.1,0.8-5.1c0-2.5-0.7-4.3-2-5.3s-3.4-1.6-6.1-1.6h-8.2L719.7-410.8z"
	/>
<path class="st1" d="M708-410.5c0-0.3-0.1-0.7-0.4-0.8c-0.3-0.2-0.5-0.2-0.8-0.2c-3.3,0-6.6,0-9.9-0.2c-0.3,0-0.4,0-0.6-0.2
	c-0.3-0.2-0.3-0.5-0.3-0.7c-0.1-2-0.3-3.9-0.3-5.9c0-0.6-0.1-1.2-0.4-1.7s-1-0.7-1.6-0.3c-0.4-1.3-0.2-2.8,0.8-3.9
	c1.4,0.2,2.7,0.8,4,1.2s3,0.6,4-0.2c1-0.7,1.3-1.9,1.4-3c0.1-1,0-2.1-0.5-2.9c-0.4-0.9-1.4-1.7-2.4-1.7c-0.7-0.1-1.4,0.1-2.1,0.2
	c-1.4,0.4-2.8,0.9-4.2,1.5c-0.7-1.3-2.3-2.2-3.8-2.3c-1.6-0.1-3.1,0.7-4,2.1c-2.3-0.4-4.7-2.2-7-1.4c-1.7,0.6-2.6,2.4-2.5,4.2
	c0,1.6,0.8,3.3,2.3,3.9c2.1,0.7,4.3-0.8,6.4-1.6c0.2-0.1,0.4-0.1,0.6-0.1c0.3,0.1,0.4,0.3,0.5,0.6c0.5,1.1,0.7,2.3,0.4,3.4
	c-0.5-0.2-1.2,0.1-1.5,0.6s-0.3,1.1-0.3,1.7c-0.1,2.2-0.3,4.5-1,6.7c-3.8,0.1-7.6,0.1-11.4,0.2c-1.7,0-3.6,0.1-4.8,1.2
	c-1.5,1.2-1.6,3.4-1.6,5.3c0,4.2,0,8.4,0,12.6c0,3.1,3.7,2.6,6,2.3c0.8-0.1,1.7-0.2,2.2-0.8c0.6-0.5,0.6-1.3,0.5-2.1
	c-0.1-2.2-0.2-4.4-0.3-6.7c0-0.2,0-0.6,0.1-0.8c0.3-0.5,0.9-0.6,1.5-0.6c2.3-0.2,4.8-0.2,7.1-0.1c7.5,0.2,15.8-0.2,22.4,0.4
	c0.3,0,0.6,0,0.9-0.2c0.5-0.2,0.5-0.9,0.5-1.5c-0.1-2.6-0.1-5.2-0.2-7.8C708-410.2,708-410.4,708-410.5z"/>
<rect x="795.9" y="-157.9" class="st9" width="294.9" height="112.5"/>
<path class="st1" d="M800.6-89.6v-57.6h21.2c4,0,7.4,0.4,10.2,1.1c2.8,0.7,5.1,1.8,6.8,3.1c1.8,1.3,3,3,3.9,4.9s1.2,4.1,1.2,6.4
	c0,1.3-0.2,2.5-0.6,3.7c-0.4,1.2-0.9,2.3-1.7,3.4s-1.8,2-3,2.9s-2.7,1.6-4.5,2.2c3.8,0.9,6.6,2.4,8.4,4.5c1.8,2.1,2.7,4.7,2.7,8
	c0,2.4-0.5,4.7-1.4,6.8c-0.9,2.1-2.3,3.9-4.2,5.5c-1.8,1.6-4.1,2.8-6.8,3.7c-2.7,0.9-5.8,1.3-9.2,1.3L800.6-89.6L800.6-89.6z
	 M814-122.9h7c1.5,0,2.8-0.1,4-0.3c1.2-0.2,2.2-0.6,3-1.1s1.5-1.3,1.9-2.2c0.4-0.9,0.7-2.1,0.7-3.5s-0.2-2.5-0.5-3.4
	s-0.9-1.6-1.6-2.2c-0.7-0.6-1.6-0.9-2.7-1.2c-1.1-0.2-2.4-0.4-3.9-0.4H814V-122.9z M814-114v14.3h9.4c1.8,0,3.2-0.2,4.3-0.7
	c1.1-0.4,2-1,2.6-1.7s1.1-1.5,1.3-2.4s0.4-1.8,0.4-2.7c0-1.1-0.1-2-0.4-2.8c-0.3-0.8-0.8-1.6-1.4-2.1c-0.7-0.6-1.6-1-2.7-1.3
	c-1.1-0.3-2.5-0.5-4.2-0.5H814V-114z"/>
<path class="st1" d="M866.5-141.8c0,1-0.2,1.9-0.6,2.7c-0.4,0.9-0.9,1.6-1.6,2.3c-0.7,0.6-1.5,1.2-2.4,1.5c-0.9,0.4-1.9,0.6-2.9,0.6
	s-1.9-0.2-2.8-0.6c-0.9-0.4-1.6-0.9-2.3-1.5s-1.2-1.4-1.6-2.3c-0.4-0.9-0.6-1.8-0.6-2.7c0-1,0.2-1.9,0.6-2.8
	c0.4-0.9,0.9-1.6,1.6-2.3c0.7-0.7,1.4-1.2,2.3-1.5c0.9-0.4,1.8-0.6,2.8-0.6s2,0.2,2.9,0.6c0.9,0.4,1.7,0.9,2.4,1.5
	c0.7,0.7,1.2,1.4,1.6,2.3S866.5-142.8,866.5-141.8z M865.1-130.5v41h-12.2v-41H865.1z"/>
<path class="st1" d="M889.4-89c-1.9,0-3.7-0.3-5.2-0.8c-1.5-0.6-2.7-1.4-3.8-2.4c-1-1-1.8-2.3-2.3-3.8s-0.8-3.1-0.8-4.9v-21.2h-3.5
	c-0.6,0-1.2-0.2-1.6-0.6c-0.4-0.4-0.7-1-0.7-1.8v-4.8l6.5-1.3l2.4-10c0.3-1.3,1.2-1.9,2.7-1.9h6.4v12h10v8.4h-10v20.3
	c0,0.9,0.2,1.7,0.7,2.4c0.5,0.6,1.1,0.9,2,0.9c0.4,0,0.8,0,1.1-0.1s0.6-0.2,0.8-0.3s0.4-0.2,0.6-0.3c0.2-0.1,0.4-0.1,0.7-0.1
	c0.4,0,0.7,0.1,0.9,0.3c0.2,0.2,0.5,0.4,0.7,0.8l3.7,5.8c-1.6,1.2-3.4,2.1-5.3,2.7C893.5-89.2,891.5-89,889.4-89z"/>
<path class="st1" d="M920.9-89c-1.9,0-3.7-0.3-5.2-0.8c-1.5-0.6-2.7-1.4-3.8-2.4c-1-1-1.8-2.3-2.3-3.8s-0.8-3.1-0.8-4.9v-21.2h-3.5
	c-0.6,0-1.2-0.2-1.6-0.6c-0.4-0.4-0.7-1-0.7-1.8v-4.8l6.5-1.3l2.4-10c0.3-1.3,1.2-1.9,2.7-1.9h6.4v12h10v8.4h-10v20.3
	c0,0.9,0.2,1.7,0.7,2.4c0.5,0.6,1.1,0.9,2,0.9c0.4,0,0.8,0,1.1-0.1s0.6-0.2,0.8-0.3s0.4-0.2,0.6-0.3c0.2-0.1,0.4-0.1,0.7-0.1
	c0.4,0,0.7,0.1,0.9,0.3c0.2,0.2,0.5,0.4,0.7,0.8l3.7,5.8c-1.6,1.2-3.4,2.1-5.3,2.7C925.1-89.2,923.1-89,920.9-89z"/>
<path class="st1" d="M966.5-89.6c-1.2,0-2-0.2-2.6-0.5s-1.1-1-1.5-2l-0.9-2.3c-1,0.9-2,1.6-3,2.3s-1.9,1.2-2.9,1.7s-2.1,0.8-3.2,1
	s-2.4,0.3-3.8,0.3c-1.9,0-3.6-0.2-5.1-0.7s-2.8-1.2-3.9-2.2s-1.9-2.1-2.5-3.5s-0.9-3-0.9-4.9c0-1.5,0.4-2.9,1.1-4.5
	c0.7-1.5,2-2.9,3.8-4.2c1.8-1.3,4.3-2.3,7.3-3.2s7-1.3,11.7-1.3v-1.8c0-2.4-0.5-4.2-1.5-5.2s-2.4-1.6-4.2-1.6
	c-1.4,0-2.6,0.2-3.6,0.5c-0.9,0.3-1.7,0.7-2.5,1.1c-0.7,0.4-1.4,0.8-2.1,1.1c-0.7,0.3-1.5,0.5-2.4,0.5c-0.8,0-1.6-0.2-2.2-0.6
	c-0.6-0.4-1.1-0.9-1.4-1.5l-2.2-3.8c2.5-2.2,5.2-3.8,8.2-4.9c3-1.1,6.2-1.6,9.7-1.6c2.5,0,4.7,0.4,6.7,1.2s3.7,1.9,5.1,3.4
	c1.4,1.4,2.4,3.1,3.2,5.1c0.7,2,1.1,4.1,1.1,6.5v25.6H966.5z M952.4-97.1c1.6,0,3-0.3,4.1-0.8c1.2-0.6,2.4-1.4,3.6-2.7v-5.6
	c-2.4,0-4.5,0.2-6,0.5s-2.8,0.7-3.8,1.2s-1.6,1-1.9,1.6c-0.4,0.6-0.5,1.3-0.5,2c0,1.4,0.4,2.4,1.1,3
	C949.8-97.3,950.9-97.1,952.4-97.1z"/>
<path class="st1" d="M980.8-76.6v-54h7.6c0.8,0,1.4,0.2,1.9,0.5s0.9,0.9,1.1,1.5l0.9,3c0.8-0.9,1.6-1.7,2.5-2.4s1.9-1.3,2.9-1.8
	s2.2-0.9,3.4-1.2s2.5-0.4,3.9-0.4c2.1,0,4.1,0.5,5.9,1.4c1.8,0.9,3.4,2.3,4.7,4.1c1.3,1.8,2.4,4,3.1,6.6c0.8,2.6,1.1,5.5,1.1,8.8
	c0,3.1-0.4,5.9-1.3,8.5c-0.9,2.6-2.1,4.9-3.6,6.8s-3.4,3.4-5.5,4.5s-4.5,1.6-7.1,1.6c-2.1,0-3.9-0.3-5.4-0.9s-2.8-1.4-4-2.4v15.7
	h-12.1V-76.6z M1000.7-122c-0.9,0-1.7,0.1-2.4,0.3c-0.7,0.2-1.4,0.4-2,0.7c-0.6,0.3-1.2,0.7-1.7,1.2s-1.1,1-1.6,1.7v17.4
	c0.9,1,1.9,1.7,3,2.2s2.2,0.6,3.4,0.6c1.1,0,2.2-0.2,3.1-0.7c0.9-0.4,1.8-1.2,2.5-2.2s1.2-2.3,1.6-3.9c0.4-1.6,0.6-3.5,0.6-5.8
	c0-2.2-0.2-4-0.5-5.5s-0.8-2.7-1.3-3.6c-0.6-0.9-1.2-1.6-2-2C1002.6-121.8,1001.7-122,1000.7-122z"/>
<path class="st1" d="M802.4-122.8c0-0.3-4.6-0.4-5.6-0.3c-0.2-0.2-0.6,0-0.8,0c-2.8,0-5.7,0-8.5-0.2c-0.2,0-0.4,0-0.5-0.2
	c-0.2-0.2-0.2-0.5-0.2-0.7c-0.1-1.8-0.2-3.5-0.3-5.3c0-0.5-0.1-1.1-0.4-1.5c-0.3-0.5-0.9-0.7-1.3-0.3c-0.4-1.2-0.1-2.6,0.7-3.5
	c1.2,0.2,2.3,0.8,3.4,1.1c1.1,0.4,2.5,0.5,3.4-0.2c0.8-0.6,1.1-1.7,1.2-2.7c0.1-0.9,0-1.9-0.4-2.6c-0.4-0.8-1.2-1.5-2.1-1.6
	c-0.6-0.1-1.2,0.1-1.8,0.2c-1.2,0.4-2.4,0.8-3.6,1.4c-0.6-1.2-1.9-2-3.3-2.1c-1.3-0.1-2.7,0.7-3.4,1.9c-2-0.4-4-2-6-1.3
	c-1.4,0.5-2.2,2.2-2.2,3.8c0,1.4,0.7,3,2,3.5c1.8,0.7,3.6-0.8,5.5-1.4c0.1-0.1,0.4-0.1,0.5-0.1c0.2,0.1,0.4,0.3,0.4,0.5
	c0.4,1,0.6,2.1,0.4,3.1c-0.4-0.2-1,0.1-1.3,0.5c-0.2,0.5-0.2,1-0.2,1.5c-0.1,2-0.3,4.1-0.8,6.1c-3.3,0.1-6.5,0.1-9.8,0.2
	c-1.4,0-3.1,0.1-4.1,1.1c-1.3,1.1-1.3,3.1-1.3,4.8c0,3.8,0,7.6,0,11.3c0,2.8,3.2,2.3,5.1,2.1c0.7-0.1,1.4-0.2,1.9-0.8
	c0.5-0.5,0.5-1.2,0.4-1.9c-0.1-2-0.1-4-0.2-6c0-0.2,0-0.5,0.1-0.8c0.2-0.5,0.7-0.5,1.3-0.5c2-0.2,4.1-0.2,6.1-0.1
	c6.4,0.2,13.6-0.2,19.1,0.4c0.2,0,0.5,0,0.7-0.2c0.4-0.2,0.4-0.8,0.4-1.4c-0.1-2.3,4.8-4.2,4.8-6.5
	C801.9-121.4,802.4-122.7,802.4-122.8z"/>
<circle class="st6" cx="31.7" cy="73.4" r="1.4"/>
<circle class="st6" cx="31.7" cy="69.5" r="0.8"/>
<circle class="st6" cx="31.7" cy="79.3" r="2.3"/>
<circle class="st10" cx="114.1" cy="31.8" r="5.8"/>
</svg>
