<?xml version="1.0" encoding="utf-8"?>
<!-- Generator: Adobe Illustrator 23.1.1, SVG Export Plug-In . SVG Version: 6.00 Build 0)  -->
<svg version="1.1" xmlns="http://www.w3.org/2000/svg" xmlns:xlink="http://www.w3.org/1999/xlink" x="0px" y="0px"
	 viewBox="0 0 299.3 113.8" style="enable-background:new 0 0 299.3 113.8;" xml:space="preserve">
<style type="text/css">
	.st0{fill:#252828;stroke:#252828;stroke-width:3.029;stroke-miterlimit:10;}
	.st1{fill:#252828;}
	.st2{fill:#662C8F;}
	.st3{fill:#293991;}
	.st4{fill:#23A8E0;}
	.st5{fill:#006A37;}
	.st6{fill:#F5EB0E;}
	.st7{fill:#F8951D;}
	.st8{fill:#C12129;}
	.st9{fill:none;}
	.st10{fill:#1A1C1C;}
	.st11{font-family:'Lato-BlackItalic';}
	.st12{font-size:79px;}
</style>
<g id="bg">
</g>
<g id="Layer_1">
	<path class="st0" d="M148.1-80.8h-6.6v-41.7h6.6V-80.8z"/>
	<path class="st0" d="M182.1-117.2h-12v22.8c0,5.6,2.4,8.4,7.3,8.4c1.4,0,2.9-0.3,4.5-0.8v5.7c-1.8,0.6-3.7,1-5.8,1
		c-4,0-7.1-1.2-9.3-3.5c-2.2-2.3-3.3-5.6-3.3-9.8v-23.8h-8.1v-5.3h8.1v-10.7l6.6-2.3v13h12V-117.2z"/>
	<path class="st0" d="M210-117.2h-12v22.8c0,5.6,2.4,8.4,7.3,8.4c1.4,0,2.9-0.3,4.5-0.8v5.7c-1.8,0.6-3.7,1-5.8,1
		c-4,0-7.1-1.2-9.3-3.5c-2.2-2.3-3.3-5.6-3.3-9.8v-23.8h-8.1v-5.3h8.1v-10.7l6.6-2.3v13h12V-117.2z"/>
	<path class="st0" d="M247.2-122.5h6.6v41.7h-6.6v-7.6c-2.5,5.5-7.2,8.2-14.1,8.2c-5.6,0-10.1-2-13.4-5.9c-3.3-3.9-5-9.1-5-15.6
		s1.7-11.7,5.1-15.8c3.4-4,7.8-6.1,13.3-6.1c6.6,0,11.3,2.7,14.1,8.2V-122.5L247.2-122.5z M234.5-117.9c-4.1,0-7.3,1.4-9.5,4.3
		c-2.3,2.9-3.4,6.8-3.4,11.9c0,5.1,1.1,9,3.4,11.7c2.3,2.7,5.4,4.1,9.5,4.1s7.2-1.4,9.5-4.2c2.2-2.8,3.3-6.7,3.3-11.8
		C247.2-112.5,243-117.9,234.5-117.9z"/>
	<path class="st0" d="M298.6-86.1c-3.4,3.9-7.9,5.9-13.5,5.9c-6.7,0-11.4-2.8-14.1-8.4v25.7h-6.6v-47.8c0-3.1-0.2-7.1-0.6-11.8h6.3
		l0.6,8.1c2.6-6,7.4-9.1,14.4-9.1c5.6,0,10.1,2,13.5,6.1c3.4,4,5.1,9.3,5.1,15.8C303.6-95.2,302-90,298.6-86.1z M293.2-113.6
		c-2.3-2.9-5.4-4.3-9.4-4.3c-4.1,0-7.3,1.4-9.5,4.1c-2.3,2.7-3.4,6.7-3.4,11.9c0,5.1,1.1,9,3.4,11.8s5.4,4.2,9.5,4.2
		s7.2-1.4,9.5-4.1c2.2-2.7,3.3-6.7,3.3-11.7C296.6-106.8,295.6-110.7,293.2-113.6z"/>
	<circle class="st1" cx="144.8" cy="-131.5" r="5.7"/>
	<path class="st1" d="M108.9-227.6c0-0.4-0.1-0.8-0.5-1c-0.3-0.2-0.6-0.2-0.9-0.2c-3.8,0-7.6,0-11.4-0.2c-0.3,0-0.5,0-0.7-0.2
		c-0.3-0.2-0.3-0.6-0.3-0.9c-0.1-2.4-0.3-4.7-0.4-7.1c0-0.7-0.1-1.4-0.5-2c-0.4-0.6-1.2-0.9-1.8-0.4c-0.5-1.6-0.2-3.4,0.9-4.7
		c1.6,0.2,3.1,1,4.6,1.5s3.4,0.7,4.6-0.3c1.1-0.8,1.5-2.3,1.6-3.6c0.1-1.2,0-2.5-0.6-3.5c-0.5-1.1-1.6-2-2.8-2.1
		c-0.8-0.1-1.6,0.1-2.4,0.3c-1.6,0.5-3.2,1.1-4.8,1.8c-0.8-1.6-2.6-2.7-4.4-2.8c-1.8-0.1-3.6,0.9-4.6,2.5c-2.7-0.5-5.4-2.7-8-1.7
		c-1.9,0.7-3,2.9-2.9,5c0,1.9,0.9,4,2.7,4.7c2.4,0.9,4.9-1,7.4-1.9c0.2-0.1,0.5-0.1,0.7-0.1c0.3,0.1,0.5,0.4,0.6,0.7
		c0.6,1.3,0.8,2.8,0.5,4.1c-0.6-0.3-1.4,0.1-1.7,0.7c-0.3,0.6-0.3,1.3-0.3,2c-0.1,2.7-0.4,5.4-1.1,8.1c-4.4,0.1-8.7,0.1-13.1,0.2
		c-1.9,0-4.1,0.1-5.5,1.4c-1.7,1.5-1.8,4.1-1.8,6.4c0,5,0,10.1,0,15.1c0,3.7,4.3,3.1,6.9,2.8c0.9-0.1,1.9-0.3,2.5-1
		c0.7-0.6,0.7-1.6,0.6-2.5c-0.1-2.7-0.2-5.3-0.3-8c0-0.3,0-0.7,0.1-1c0.3-0.6,1-0.7,1.7-0.7c2.7-0.2,5.5-0.2,8.2-0.1
		c8.6,0.2,18.2-0.2,25.7,0.5c0.3,0,0.7,0,1-0.2c0.6-0.3,0.6-1.1,0.6-1.8c-0.1-3.1-0.1-6.3-0.2-9.4
		C108.9-227.3,108.9-227.5,108.9-227.6z"/>
	<path class="st2" d="M64-195.1c0,0,1.7-4.3,2.9-4.3c1.1-0.1,1.8,1.2,1.9,1.4C68.9-198,64-195.1,64-195.1z"/>
	<polygon class="st3" points="62.6,-192.2 69.6,-196.5 68.8,-198.1 64,-195.1 	"/>
	<polygon class="st4" points="69.6,-196.5 70.6,-194.7 61,-188.8 61.6,-190.3 62.6,-192.2 	"/>
	<path class="st5" d="M70.6-194.7l1.1,2.2l-11.1,6.4c0,0,0.2-1.9,0.5-2.8"/>
	<path class="st6" d="M71.7-192.5l1.2,2.3L61-183.8c0,0-0.5-1.4-0.4-2.3L71.7-192.5z"/>
	<path class="st7" d="M72.9-190.2c0,0,0.8,2,0.8,2.6l-11.1,6.3c0,0-0.9-0.6-1.7-2.4L72.9-190.2z"/>
	<path class="st8" d="M73.7-187.6c0,0,0.6,4.5-3.4,6.3c0,0-3.6,2.2-7.6,0L73.7-187.6z"/>
	<rect x="172" y="-253" class="st9" width="294.9" height="112.5"/>
	<text transform="matrix(1 0 0 1 171.9949 -180.4493)" class="st1" style="font-family:'Lato-Black'; font-size:84px;">ittap</text>
	<g>
		<g>
			<rect x="52.4" y="14.3" class="st9" width="294.9" height="112.5"/>
			<text transform="matrix(1 0 0 1 52.4263 82.6103)" class="st10 st11 st12">Bittap</text>
		</g>
		<path class="st10" d="M62.6,50.3c0-0.3-0.1-0.6-0.4-0.7c-0.2-0.1-0.4-0.1-0.7-0.1c-2.8,0-5.6,0-8.4-0.1c-0.2,0-0.4,0-0.5-0.1
			c-0.2-0.1-0.2-0.4-0.2-0.7c-0.1-1.8-0.2-3.5-0.3-5.3c0-0.5-0.1-1-0.4-1.5c-0.3-0.4-0.9-0.7-1.3-0.3c-0.4-1.2-0.1-2.5,0.7-3.5
			c1.2,0.1,2.3,0.7,3.4,1.1s2.5,0.5,3.4-0.2c0.8-0.6,1.1-1.7,1.2-2.7c0.1-0.9,0-1.8-0.4-2.6c-0.4-0.8-1.2-1.5-2.1-1.6
			c-0.6-0.1-1.2,0.1-1.8,0.2c-1.2,0.4-2.4,0.8-3.5,1.3c-0.6-1.2-1.9-2-3.2-2.1c-1.3-0.1-2.6,0.7-3.4,1.8c-2-0.4-4-2-5.9-1.3
			c-1.4,0.5-2.2,2.1-2.1,3.7c0,1.4,0.7,3,2,3.5c1.8,0.7,3.6-0.7,5.4-1.4c0.1-0.1,0.4-0.1,0.5-0.1c0.2,0.1,0.4,0.3,0.4,0.5
			c0.4,1,0.6,2.1,0.4,3c-0.4-0.2-1,0.1-1.2,0.5c-0.2,0.4-0.2,1-0.2,1.5c-0.1,2-0.3,4-0.8,6c-3.2,0.1-6.4,0.1-9.6,0.1
			c-1.4,0-3,0.1-4,1c-1.2,1.1-1.3,3-1.3,4.7c0,3.7,0,7.5,0,11.2c0,2.7,3.2,2.3,5.1,2.1c0.7-0.1,1.4-0.2,1.8-0.7
			c0.5-0.4,0.5-1.2,0.4-1.8c-0.1-2-0.1-3.9-0.2-5.9c0-0.2,0-0.5,0.1-0.7c0.2-0.4,0.7-0.5,1.2-0.5c2-0.1,4-0.1,6-0.1
			c6.3,0.1,13.4-0.1,18.9,0.4c0.2,0,0.5,0,0.7-0.1c0.4-0.2,0.4-0.8,0.4-1.3c-0.1-2.3-0.1-4.7-0.1-7C62.6,50.6,62.6,50.4,62.6,50.3z"
			/>
	</g>
	<path class="st2" d="M-15.3,58.7c0,0,0.7-1.8,1.2-1.8c0.5,0,0.8,0.5,0.8,0.6C-13.2,57.5-15.3,58.7-15.3,58.7z"/>
	<polygon class="st3" points="-15.9,59.9 -12.9,58.1 -13.3,57.5 -15.3,58.7 	"/>
	<polygon class="st4" points="-12.9,58.1 -12.5,58.9 -16.6,61.4 -16.3,60.8 -15.9,59.9 	"/>
	<path class="st5" d="M-12.5,58.9l0.5,0.9l-4.7,2.7c0,0,0.1-0.8,0.2-1.2"/>
	<path class="st6" d="M-12,59.8l0.5,1l-5,2.7c0,0-0.2-0.6-0.2-1L-12,59.8z"/>
	<path class="st7" d="M-11.5,60.8c0,0,0.3,0.8,0.3,1.1l-4.7,2.7c0,0-0.4-0.3-0.7-1L-11.5,60.8z"/>
	<path class="st8" d="M-11.2,61.9c0,0,0.3,1.9-1.4,2.7c0,0-1.5,0.9-3.2,0L-11.2,61.9z"/>
	<g>
		<rect x="428.9" y="20.3" class="st9" width="294.9" height="112.5"/>
		<text transform="matrix(1 0 0 1 428.9084 88.53)" class="st1 st11 st12">ITTAP</text>
	</g>
	<g>
		<rect x="375.1" y="10" class="st9" width="56.6" height="112.5"/>
		<text transform="matrix(1 0 0 1 375.0537 90.348)" class="st1 st11" style="font-size:93px;">B</text>
		<path class="st1" d="M385.3,51.7c0-0.3-0.1-0.7-0.4-0.8c-0.3-0.2-0.5-0.2-0.8-0.2c-3.3,0-6.6,0-9.9-0.2c-0.3,0-0.4,0-0.6-0.2
			c-0.3-0.2-0.3-0.5-0.3-0.7c-0.1-2-0.3-3.9-0.3-5.9c0-0.6-0.1-1.2-0.4-1.7c-0.3-0.5-1-0.7-1.6-0.3c-0.4-1.3-0.2-2.8,0.8-3.9
			c1.4,0.2,2.7,0.8,4,1.2c1.3,0.4,3,0.6,4-0.2c1-0.7,1.3-1.9,1.4-3c0.1-1,0-2.1-0.5-2.9c-0.4-0.9-1.4-1.7-2.4-1.7
			c-0.7-0.1-1.4,0.1-2.1,0.2c-1.4,0.4-2.8,0.9-4.2,1.5c-0.7-1.3-2.3-2.2-3.8-2.3c-1.6-0.1-3.1,0.7-4,2.1c-2.3-0.4-4.7-2.2-7-1.4
			c-1.7,0.6-2.6,2.4-2.5,4.2c0,1.6,0.8,3.3,2.3,3.9c2.1,0.7,4.3-0.8,6.4-1.6c0.2-0.1,0.4-0.1,0.6-0.1c0.3,0.1,0.4,0.3,0.5,0.6
			c0.5,1.1,0.7,2.3,0.4,3.4c-0.5-0.2-1.2,0.1-1.5,0.6c-0.3,0.5-0.3,1.1-0.3,1.7c-0.1,2.2-0.3,4.5-1,6.7c-3.8,0.1-7.6,0.1-11.4,0.2
			c-1.7,0-3.6,0.1-4.8,1.2c-1.5,1.2-1.6,3.4-1.6,5.3c0,4.2,0,8.4,0,12.6c0,3.1,3.7,2.6,6,2.3c0.8-0.1,1.7-0.2,2.2-0.8
			c0.6-0.5,0.6-1.3,0.5-2.1c-0.1-2.2-0.2-4.4-0.3-6.7c0-0.2,0-0.6,0.1-0.8c0.3-0.5,0.9-0.6,1.5-0.6c2.3-0.2,4.8-0.2,7.1-0.1
			c7.5,0.2,15.8-0.2,22.4,0.4c0.3,0,0.6,0,0.9-0.2c0.5-0.2,0.5-0.9,0.5-1.5c-0.1-2.6-0.1-5.2-0.2-7.8
			C385.3,52,385.3,51.8,385.3,51.7z"/>
	</g>
	<g>
		<g>
			<rect x="82.5" y="219.7" class="st9" width="294.9" height="112.5"/>
			<text transform="matrix(1 0 0 1 82.5281 288.0145)" class="st1 st12" style="font-family:'Lato-Black';">Bittap</text>
		</g>
		<path class="st1" d="M89,254.8c0-0.3-4.6-0.4-5.6-0.3c-0.2-0.2-0.6,0-0.8,0c-2.8,0-5.7,0-8.5-0.2c-0.2,0-0.4,0-0.5-0.2
			c-0.2-0.2-0.2-0.5-0.2-0.7c-0.1-1.8-0.2-3.5-0.3-5.3c0-0.5-0.1-1.1-0.4-1.5c-0.3-0.5-0.9-0.7-1.3-0.3c-0.4-1.2-0.1-2.6,0.7-3.5
			c1.2,0.2,2.3,0.8,3.4,1.1c1.1,0.4,2.5,0.5,3.4-0.2c0.8-0.6,1.1-1.7,1.2-2.7c0.1-0.9,0-1.9-0.4-2.6c-0.4-0.8-1.2-1.5-2.1-1.6
			c-0.6-0.1-1.2,0.1-1.8,0.2c-1.2,0.4-2.4,0.8-3.6,1.4c-0.6-1.2-1.9-2-3.3-2.1c-1.3-0.1-2.7,0.7-3.4,1.9c-2-0.4-4-2-6-1.3
			c-1.4,0.5-2.2,2.2-2.2,3.8c0,1.4,0.7,3,2,3.5c1.8,0.7,3.6-0.8,5.5-1.4c0.1-0.1,0.4-0.1,0.5-0.1c0.2,0.1,0.4,0.3,0.4,0.5
			c0.4,1,0.6,2.1,0.4,3.1c-0.4-0.2-1,0.1-1.3,0.5c-0.2,0.5-0.2,1-0.2,1.5c-0.1,2-0.3,4.1-0.8,6.1c-3.3,0.1-6.5,0.1-9.8,0.2
			c-1.4,0-3.1,0.1-4.1,1.1c-1.3,1.1-1.3,3.1-1.3,4.8c0,3.8,0,7.6,0,11.3c0,2.8,3.2,2.3,5.1,2.1c0.7-0.1,1.4-0.2,1.9-0.8
			c0.5-0.5,0.5-1.2,0.4-1.9c-0.1-2-0.1-4-0.2-6c0-0.2,0-0.5,0.1-0.8c0.2-0.5,0.7-0.5,1.3-0.5c2-0.2,4.1-0.2,6.1-0.1
			c6.4,0.2,13.6-0.2,19.1,0.4c0.2,0,0.5,0,0.7-0.2c0.4-0.2,0.4-0.8,0.4-1.4c-0.1-2.3,4.8-4.2,4.8-6.5C88.5,256.2,89,254.9,89,254.8z
			"/>
	</g>
	<circle class="st6" cx="31.7" cy="74.6" r="1.4"/>
	<circle class="st6" cx="31.7" cy="70.5" r="0.8"/>
	<circle class="st6" cx="31.7" cy="80.3" r="2.3"/>
</g>
</svg>
