<?xml version="1.0" encoding="utf-8"?>
<!-- Generator: Adobe Illustrator 23.1.1, SVG Export Plug-In . SVG Version: 6.00 Build 0)  -->
<svg version="1.1" id="Layer_1" xmlns="http://www.w3.org/2000/svg" xmlns:xlink="http://www.w3.org/1999/xlink" x="0px" y="0px"
	 viewBox="0 0 183.6 184.1" style="enable-background:new 0 0 183.6 184.1;" xml:space="preserve">
<style type="text/css">
	.st0{fill:#3C3D3B;stroke:#2C2D2B;stroke-width:1.5;stroke-miterlimit:10;}
	.st1{fill:#FAFAFA;stroke:#2C2D2B;stroke-width:1.6516;stroke-miterlimit:10;}
	.st2{fill:#1B1D1D;}
</style>
<circle class="st0" cx="461.3" cy="470.1" r="77.2"/>
<path class="st1" d="M469.2,511.9l-32.6-38.1c-0.8-0.9-0.8-2.2-0.1-3.1l32.7-40.9c0.8-1,2.2-1.2,3.3-0.5l4.8,3.2
	c1.2,0.8,1.4,2.4,0.6,3.5l-26.7,34.7c-0.7,0.9-0.7,2.2,0.1,3l26.5,31.8c0.9,1.1,0.7,2.8-0.5,3.6l-4.8,3.2
	C471.4,513,470,512.8,469.2,511.9z"/>
<path id="Rectangle_7" class="st2" d="M47.4,47.6h88.9c2.9,0,5.2,2.3,5.2,5.2v5.2c0,2.9-2.3,5.2-5.2,5.2H47.4
	c-2.9,0-5.2-2.3-5.2-5.2v-5.2C42.1,50,44.5,47.6,47.4,47.6z"/>
<path id="Rectangle_8" class="st2" d="M47.4,84.2h88.9c2.9,0,5.2,2.3,5.2,5.2v5.2c0,2.9-2.3,5.2-5.2,5.2H47.4
	c-2.9,0-5.2-2.3-5.2-5.2v-5.2C42.1,86.5,44.5,84.2,47.4,84.2z"/>
<path id="Rectangle_9" class="st2" d="M47.4,120.8h88.9c2.9,0,5.2,2.3,5.2,5.2v5.2c0,2.9-2.3,5.2-5.2,5.2H47.4
	c-2.9,0-5.2-2.3-5.2-5.2V126C42.1,123.1,44.5,120.8,47.4,120.8z"/>
</svg>
